<svg width="329" height="106" viewBox="0 0 329 106" fill="none" xmlns="http://www.w3.org/2000/svg">
<path d="M126.137 43.5586C126.137 45.1263 125.48 46.4753 124.168 47.6055C122.855 48.7174 121.27 49.2734 119.41 49.2734C117.569 49.2734 115.983 48.7174 114.652 47.6055C113.34 46.4753 112.684 45.1263 112.684 43.5586V15.2305C112.684 13.6628 113.34 12.3229 114.652 11.2109C115.983 10.0807 117.569 9.51562 119.41 9.51562C121.27 9.51562 122.855 10.0807 124.168 11.2109C125.48 12.3229 126.137 13.6628 126.137 15.2305V21.5469H121.652V12.7695C121.652 12.1497 121.434 11.6211 120.996 11.1836C120.559 10.7461 120.03 10.5273 119.41 10.5273C118.79 10.5273 118.262 10.7461 117.824 11.1836C117.387 11.6211 117.168 12.1497 117.168 12.7695V46.0195C117.168 46.6393 117.387 47.168 117.824 47.6055C118.262 48.043 118.79 48.2617 119.41 48.2617C120.03 48.2617 120.559 48.043 120.996 47.6055C121.434 47.168 121.652 46.6393 121.652 46.0195V37.2422H126.137V43.5586ZM134.312 16.5156H129.938V9.78906H134.312V16.5156ZM135.707 49H128.543V47.9883H129.938V20.8906H128.543V19.8789H134.312V47.9883H135.707V49ZM152.059 49H146.316V22.8594C146.316 21.4375 145.77 20.7266 144.676 20.7266C143.965 20.7266 143.29 21.0456 142.652 21.6836V47.9883H144.074V49H136.883V47.9883H138.305V20.8906H136.883V19.8789H142.652V20.6719C143.473 19.9609 144.557 19.6055 145.906 19.6055C149.078 19.6055 150.664 21.319 150.664 24.7461V47.9883H152.059V49ZM166.414 43.5586C166.414 45.1628 165.812 46.5208 164.609 47.6328C163.424 48.7266 161.921 49.2734 160.098 49.2734C158.275 49.2734 156.762 48.7266 155.559 47.6328C154.355 46.5208 153.754 45.1628 153.754 43.5586V25.3203C153.754 23.7161 154.355 22.3672 155.559 21.2734C156.762 20.1615 158.275 19.6055 160.098 19.6055C161.921 19.6055 163.424 20.1615 164.609 21.2734C165.812 22.3672 166.414 23.7161 166.414 25.3203V34.8906H158.129V46.0195C158.129 47.5143 158.785 48.2617 160.098 48.2617C161.392 48.2617 162.039 47.5143 162.039 46.0195V40.0859H166.414V43.5586ZM162.039 33.8789V22.8594C162.039 21.3646 161.392 20.6172 160.098 20.6172C158.785 20.6172 158.129 21.3646 158.129 22.8594V33.8789H162.039ZM166.031 10.3633L160.207 18.2109H158.977L161.273 9.78906H166.031V10.3633ZM187.77 49H180.496V47.9883H181.891V21.2734L178.746 49H175.164L171.473 21.2734V47.9883H172.867V49H168.684V47.9883H170.078V10.8008H168.684V9.78906H174.617L178.473 40.332L181.836 9.78906H187.77V10.8008H186.375V47.9883H187.77V49ZM203.41 49H197.641V48.207C196.82 48.918 195.772 49.2734 194.496 49.2734C191.397 49.2734 189.848 47.5599 189.848 44.1328V37.6797C189.848 34.0703 191.999 32.2656 196.301 32.2656H197.641V22.8594C197.641 21.3646 197.094 20.6172 196 20.6172C194.924 20.6172 194.387 21.3646 194.387 22.8594V28.793H190.012V25.3203C190.012 23.5885 190.549 22.2031 191.625 21.1641C192.719 20.125 194.177 19.6055 196 19.6055C197.841 19.6055 199.299 20.125 200.375 21.1641C201.451 22.2031 201.988 23.5885 201.988 25.3203V47.9883H203.41V49ZM197.641 47.1953V33.2773H196.355C194.934 33.2773 194.223 34.0156 194.223 35.4922V46.0195C194.223 47.4414 194.724 48.1523 195.727 48.1523C196.365 48.1523 197.003 47.8333 197.641 47.1953ZM217.711 49H210.328V47.9883H211.723L209.59 38.4727L206.855 47.9883H208.25V49H203.984V47.9883H205.379L209.043 36.0117L205.516 20.8906H204.094V19.8789H211.504V20.8906H210.082L212.105 29.9688L214.73 20.8906H213.336V19.8789H217.602V20.8906H216.207L212.68 32.4844L216.316 47.9883H217.711V49Z" fill="black"/>
<path d="M104.581 70.0327H103.56V94.0161C103.56 95.1639 103.08 96.1515 102.119 96.979C101.158 97.7931 99.9966 98.2002 98.6353 98.2002C97.2873 98.2002 96.1328 97.7931 95.1719 96.979C94.2109 96.1515 93.7305 95.1639 93.7305 94.0161V70.0327H92.6895V69.292H98.0347V70.0327H97.0137V95.8179C97.0137 96.2716 97.1738 96.6587 97.4941 96.979C97.8145 97.2993 98.1948 97.4595 98.6353 97.4595C99.089 97.4595 99.4761 97.2993 99.7964 96.979C100.117 96.6587 100.277 96.2716 100.277 95.8179V70.0327H99.2559V69.292H104.581V70.0327ZM116.533 98H112.329V78.8613C112.329 77.8203 111.928 77.2998 111.127 77.2998C110.607 77.2998 110.113 77.5334 109.646 78.0005V97.2593H110.687V98H105.422V97.2593H106.463V77.4199H105.422V76.6792H109.646V77.2598C110.247 76.7393 111.041 76.479 112.028 76.479C114.351 76.479 115.512 77.7336 115.512 80.2427V97.2593H116.533V98ZM140.296 98H136.072V78.8613C136.072 77.8203 135.678 77.2998 134.891 77.2998C134.277 77.2998 133.663 77.6268 133.049 78.2808C133.289 78.8146 133.409 79.4686 133.409 80.2427V97.2593H134.43V98H130.226V78.8613C130.226 77.8203 129.826 77.2998 129.025 77.2998C128.504 77.2998 128.011 77.5334 127.543 78.0005V97.2593H128.584V98H123.319V97.2593H124.36V77.4199H123.319V76.6792H127.543V77.2598C128.144 76.7393 128.938 76.479 129.926 76.479C131.247 76.479 132.195 76.8861 132.769 77.7002C133.583 76.8861 134.59 76.479 135.792 76.479C138.114 76.479 139.275 77.7336 139.275 80.2427V97.2593H140.296V98ZM151.367 98H147.143V97.4194C146.542 97.9399 145.775 98.2002 144.84 98.2002C142.571 98.2002 141.437 96.9456 141.437 94.4365V89.7119C141.437 87.0693 143.012 85.748 146.162 85.748H147.143V78.8613C147.143 77.7669 146.742 77.2197 145.941 77.2197C145.154 77.2197 144.76 77.7669 144.76 78.8613V83.2056H141.557V80.6631C141.557 79.3952 141.951 78.3809 142.738 77.6201C143.539 76.8594 144.607 76.479 145.941 76.479C147.289 76.479 148.357 76.8594 149.145 77.6201C149.932 78.3809 150.326 79.3952 150.326 80.6631V97.2593H151.367V98ZM147.143 96.6787V86.4888H146.202C145.161 86.4888 144.64 87.0293 144.64 88.1104V95.8179C144.64 96.8589 145.007 97.3794 145.741 97.3794C146.208 97.3794 146.675 97.1458 147.143 96.6787ZM161.837 98H156.432V97.2593H157.453L155.891 90.2925L153.889 97.2593H154.91V98H151.787V97.2593H152.808L155.491 88.4907L152.908 77.4199H151.867V76.6792H157.292V77.4199H156.251L157.733 84.0664L159.655 77.4199H158.634V76.6792H161.757V77.4199H160.736L158.153 85.9082L160.816 97.2593H161.837V98ZM179.354 98H175.13V97.4194C174.529 97.9399 173.735 98.2002 172.748 98.2002C170.425 98.2002 169.264 96.9456 169.264 94.4365V80.2427C169.264 77.7336 170.425 76.479 172.748 76.479C173.735 76.479 174.529 76.7393 175.13 77.2598V70.0327H174.109V69.292H178.333V97.2593H179.354V98ZM175.13 96.6787V78.0005C174.663 77.5334 174.169 77.2998 173.648 77.2998C172.861 77.2998 172.467 77.8203 172.467 78.8613V95.8179C172.467 96.8589 172.861 97.3794 173.648 97.3794C174.169 97.3794 174.663 97.1458 175.13 96.6787ZM189.984 94.0161C189.984 95.1906 189.544 96.1849 188.663 96.999C187.796 97.7998 186.694 98.2002 185.36 98.2002C184.025 98.2002 182.917 97.7998 182.037 96.999C181.156 96.1849 180.715 95.1906 180.715 94.0161V80.6631C180.715 79.4886 181.156 78.501 182.037 77.7002C182.917 76.8861 184.025 76.479 185.36 76.479C186.694 76.479 187.796 76.8861 188.663 77.7002C189.544 78.501 189.984 79.4886 189.984 80.6631V87.6699H183.918V95.8179C183.918 96.9123 184.399 97.4595 185.36 97.4595C186.307 97.4595 186.781 96.9123 186.781 95.8179V91.4736H189.984V94.0161ZM186.781 86.9292V78.8613C186.781 77.7669 186.307 77.2197 185.36 77.2197C184.399 77.2197 183.918 77.7669 183.918 78.8613V86.9292H186.781ZM207.481 94.0161C207.481 95.1906 207.041 96.1849 206.16 96.999C205.293 97.7998 204.192 98.2002 202.857 98.2002C201.522 98.2002 200.415 97.7998 199.534 96.999C198.653 96.1849 198.212 95.1906 198.212 94.0161V80.6631C198.212 79.4886 198.653 78.501 199.534 77.7002C200.415 76.8861 201.522 76.479 202.857 76.479C204.192 76.479 205.293 76.8861 206.16 77.7002C207.041 78.501 207.481 79.4886 207.481 80.6631V83.2056H204.278V78.8613C204.278 77.7669 203.805 77.2197 202.857 77.2197C201.896 77.2197 201.416 77.7669 201.416 78.8613V95.8179C201.416 96.9123 201.896 97.4595 202.857 97.4595C203.805 97.4595 204.278 96.9123 204.278 95.8179V91.4736H207.481V94.0161ZM213.167 74.2168H209.964V69.292H213.167V74.2168ZM214.188 98H208.943V97.2593H209.964V77.4199H208.943V76.6792H213.167V97.2593H214.188V98ZM226.16 98H221.956V78.8613C221.956 77.8203 221.555 77.2998 220.754 77.2998C220.234 77.2998 219.74 77.5334 219.273 78.0005V97.2593H220.314V98H215.049V97.2593H216.09V77.4199H215.049V76.6792H219.273V77.2598C219.874 76.7393 220.668 76.479 221.655 76.479C223.978 76.479 225.139 77.7336 225.139 80.2427V97.2593H226.16V98ZM236.67 94.0161C236.67 95.1906 236.229 96.1849 235.349 96.999C234.481 97.7998 233.38 98.2002 232.045 98.2002C230.711 98.2002 229.603 97.7998 228.722 96.999C227.841 96.1849 227.401 95.1906 227.401 94.0161V80.6631C227.401 79.4886 227.841 78.501 228.722 77.7002C229.603 76.8861 230.711 76.479 232.045 76.479C233.38 76.479 234.481 76.8861 235.349 77.7002C236.229 78.501 236.67 79.4886 236.67 80.6631V87.6699H230.604V95.8179C230.604 96.9123 231.084 97.4595 232.045 97.4595C232.993 97.4595 233.467 96.9123 233.467 95.8179V91.4736H236.67V94.0161ZM233.467 86.9292V78.8613C233.467 77.7669 232.993 77.2197 232.045 77.2197C231.084 77.2197 230.604 77.7669 230.604 78.8613V86.9292H233.467ZM236.39 69.7124L232.125 75.458H231.225L232.906 69.292H236.39V69.7124Z" fill="black"/>
</svg>
